<?xml version="1.0" encoding="UTF-8"?>
<svg width="252px" height="154px" viewBox="0 0 252 154" version="1.1" xmlns="http://www.w3.org/2000/svg" xmlns:xlink="http://www.w3.org/1999/xlink">
    <!-- Generator: Sketch 49 (51002) - http://www.bohemiancoding.com/sketch -->
    <title>Group 10</title>
    <desc>Created with Sketch.</desc>
    <defs></defs>
    <g id="Page-1" stroke="none" stroke-width="1" fill="none" fill-rule="evenodd">
        <g id="Tablet-Copy" transform="translate(-263.000000, -1064.000000)">
            <g id="Group-10" transform="translate(265.000000, 1066.000000)">
                <path d="M40,149.820628 C17.574,147.799713 0,128.95217 0,106 C0,84.6149467 15.256109,66.7931486 35.4783327,62.8245998 C42.1694061,47.058216 57.7933107,36 76,36 C82.104706,36 87.9190394,37.2432333 93.2036253,39.490325 C98.2278601,16.8944335 118.390977,0 142.5,0 C170.39038,0 193,22.6096201 193,50.5 C193,55.135384 192.375466,59.6249003 191.205953,63.8889947 C195.254545,62.6605682 199.550131,62 204,62 C228.300529,62 248,81.699471 248,106 C248,130.300529 228.300529,150 204,150 L40,150 L40,149.820628 Z" id="Combined-Shape" stroke="#1CA6DE" stroke-width="3" fill="#FFFFFF"></path>
                <g id="logo" transform="translate(38.000000, 74.000000)">
                    <path d="M52.638,19.256 L60.864,19.256 L60.864,20.876 L54.366,20.876 L54.366,24.674 L60.414,24.674 L60.414,26.294 L54.366,26.294 L54.366,30.38 L61.188,30.38 L61.188,32 L52.638,32 L52.638,19.256 Z M63.348,18.392 L64.968,18.392 L64.968,32 L63.348,32 L63.348,18.392 Z M68.856,27.734 C68.856,28.1660022 68.9219993,28.5649982 69.054,28.931 C69.1860007,29.2970018 69.3719988,29.6089987 69.612,29.867 C69.8520012,30.1250013 70.1459983,30.3289993 70.494,30.479 C70.8420017,30.6290008 71.2319978,30.704 71.664,30.704 C72.0960022,30.704 72.4859983,30.6290008 72.834,30.479 C73.1820017,30.3289993 73.4759988,30.1250013 73.716,29.867 C73.9560012,29.6089987 74.1419993,29.2970018 74.274,28.931 C74.4060007,28.5649982 74.472,28.1660022 74.472,27.734 C74.472,27.3019978 74.4060007,26.9030018 74.274,26.537 C74.1419993,26.1709982 73.9560012,25.8590013 73.716,25.601 C73.4759988,25.3429987 73.1820017,25.1390008 72.834,24.989 C72.4859983,24.8389993 72.0960022,24.764 71.664,24.764 C71.2319978,24.764 70.8420017,24.8389993 70.494,24.989 C70.1459983,25.1390008 69.8520012,25.3429987 69.612,25.601 C69.3719988,25.8590013 69.1860007,26.1709982 69.054,26.537 C68.9219993,26.9030018 68.856,27.3019978 68.856,27.734 Z M67.128,27.734 C67.128,27.1099969 67.2449988,26.5280027 67.479,25.988 C67.7130012,25.4479973 68.033998,24.974002 68.442,24.566 C68.850002,24.157998 69.3299972,23.8370012 69.882,23.603 C70.4340028,23.3689988 71.0279968,23.252 71.664,23.252 C72.3000032,23.252 72.8939972,23.3689988 73.446,23.603 C73.9980028,23.8370012 74.477998,24.157998 74.886,24.566 C75.294002,24.974002 75.6149988,25.4479973 75.849,25.988 C76.0830012,26.5280027 76.2,27.1099969 76.2,27.734 C76.2,28.3580031 76.0830012,28.9429973 75.849,29.489 C75.6149988,30.0350027 75.294002,30.508998 74.886,30.911 C74.477998,31.313002 73.9980028,31.6309988 73.446,31.865 C72.8939972,32.0990012 72.3000032,32.216 71.664,32.216 C71.0279968,32.216 70.4340028,32.0990012 69.882,31.865 C69.3299972,31.6309988 68.850002,31.313002 68.442,30.911 C68.033998,30.508998 67.7130012,30.0350027 67.479,29.489 C67.2449988,28.9429973 67.128,28.3580031 67.128,27.734 Z M86.784,36.104 L85.164,36.104 L85.164,30.776 L85.128,30.776 C84.8399986,31.2200022 84.4260027,31.5709987 83.886,31.829 C83.3459973,32.0870013 82.7700031,32.216 82.158,32.216 C81.4979967,32.216 80.9010027,32.1020011 80.367,31.874 C79.8329973,31.6459989 79.3770019,31.331002 78.999,30.929 C78.6209981,30.526998 78.330001,30.0530027 78.126,29.507 C77.921999,28.9609973 77.82,28.3700032 77.82,27.734 C77.82,27.1099969 77.921999,26.5250027 78.126,25.979 C78.330001,25.4329973 78.6209981,24.956002 78.999,24.548 C79.3770019,24.139998 79.8329973,23.8220011 80.367,23.594 C80.9010027,23.3659989 81.4979967,23.252 82.158,23.252 C82.7340029,23.252 83.2949973,23.3779987 83.841,23.63 C84.3870027,23.8820013 84.8159984,24.2359977 85.128,24.692 L85.164,24.692 L85.164,23.468 L86.784,23.468 L86.784,36.104 Z M82.356,24.764 C81.9239978,24.764 81.5340017,24.8389993 81.186,24.989 C80.8379983,25.1390008 80.5440012,25.3429987 80.304,25.601 C80.0639988,25.8590013 79.8780007,26.1709982 79.746,26.537 C79.6139993,26.9030018 79.548,27.3019978 79.548,27.734 C79.548,28.1660022 79.6139993,28.5649982 79.746,28.931 C79.8780007,29.2970018 80.0639988,29.6089987 80.304,29.867 C80.5440012,30.1250013 80.8379983,30.3289993 81.186,30.479 C81.5340017,30.6290008 81.9239978,30.704 82.356,30.704 C82.7880022,30.704 83.1779983,30.6290008 83.526,30.479 C83.8740017,30.3289993 84.1679988,30.1250013 84.408,29.867 C84.6480012,29.6089987 84.8339993,29.2970018 84.966,28.931 C85.0980007,28.5649982 85.164,28.1660022 85.164,27.734 C85.164,27.3019978 85.0980007,26.9030018 84.966,26.537 C84.8339993,26.1709982 84.6480012,25.8590013 84.408,25.601 C84.1679988,25.3429987 83.8740017,25.1390008 83.526,24.989 C83.1779983,24.8389993 82.7880022,24.764 82.356,24.764 Z M96.792,32 L95.172,32 L95.172,30.686 L95.136,30.686 C94.931999,31.1420023 94.5780025,31.5109986 94.074,31.793 C93.5699975,32.0750014 92.9880033,32.216 92.328,32.216 C91.9079979,32.216 91.5120019,32.1530006 91.14,32.027 C90.7679981,31.9009994 90.4410014,31.7060013 90.159,31.442 C89.8769986,31.1779987 89.6520008,30.8390021 89.484,30.425 C89.3159992,30.0109979 89.232,29.5220028 89.232,28.958 L89.232,23.468 L90.852,23.468 L90.852,28.508 C90.852,28.904002 90.9059995,29.2429986 91.014,29.525 C91.1220005,29.8070014 91.2659991,30.0349991 91.446,30.209 C91.6260009,30.3830009 91.8329988,30.5089996 92.067,30.587 C92.3010012,30.6650004 92.5439987,30.704 92.796,30.704 C93.1320017,30.704 93.4439986,30.6500005 93.732,30.542 C94.0200014,30.4339995 94.2719989,30.2630012 94.488,30.029 C94.7040011,29.7949988 94.8719994,29.4980018 94.992,29.138 C95.1120006,28.7779982 95.172,28.3520025 95.172,27.86 L95.172,23.468 L96.792,23.468 L96.792,32 Z M100.464,28.328 C100.464,28.7000019 100.544999,29.0389985 100.707,29.345 C100.869001,29.6510015 101.081999,29.9119989 101.346,30.128 C101.610001,30.3440011 101.915998,30.5119994 102.264,30.632 C102.612002,30.7520006 102.971998,30.812 103.344,30.812 C103.848003,30.812 104.285998,30.6950012 104.658,30.461 C105.030002,30.2269988 105.371998,29.9180019 105.684,29.534 L106.908,30.47 C106.007996,31.6340058 104.748008,32.216 103.128,32.216 C102.455997,32.216 101.847003,32.1020011 101.301,31.874 C100.754997,31.6459989 100.293002,31.331002 99.915,30.929 C99.5369981,30.526998 99.246001,30.0530027 99.042,29.507 C98.837999,28.9609973 98.736,28.3700032 98.736,27.734 C98.736,27.0979968 98.8469989,26.5070027 99.069,25.961 C99.2910011,25.4149973 99.5969981,24.941002 99.987,24.539 C100.377002,24.136998 100.841997,23.8220011 101.382,23.594 C101.922003,23.3659989 102.509997,23.252 103.146,23.252 C103.902004,23.252 104.540997,23.3839987 105.063,23.648 C105.585003,23.9120013 106.013998,24.2569979 106.35,24.683 C106.686002,25.1090021 106.928999,25.5889973 107.079,26.123 C107.229001,26.6570027 107.304,27.1999972 107.304,27.752 L107.304,28.328 L100.464,28.328 Z M105.576,27.032 C105.564,26.6719982 105.507001,26.3420015 105.405,26.042 C105.302999,25.7419985 105.150001,25.4810011 104.946,25.259 C104.741999,25.0369989 104.487002,24.8630006 104.181,24.737 C103.874998,24.6109994 103.518002,24.548 103.11,24.548 C102.713998,24.548 102.351002,24.6229992 102.021,24.773 C101.690998,24.9230007 101.412001,25.1179988 101.184,25.358 C100.955999,25.5980012 100.779001,25.8649985 100.653,26.159 C100.526999,26.4530015 100.464,26.7439986 100.464,27.032 L105.576,27.032 Z M109.248,23.468 L110.868,23.468 L110.868,24.782 L110.904,24.782 C111.108001,24.3259977 111.461997,23.9570014 111.966,23.675 C112.470003,23.3929986 113.051997,23.252 113.712,23.252 C114.120002,23.252 114.512998,23.3149994 114.891,23.441 C115.269002,23.5670006 115.598999,23.7619987 115.881,24.026 C116.163001,24.2900013 116.387999,24.6289979 116.556,25.043 C116.724001,25.4570021 116.808,25.9459972 116.808,26.51 L116.808,32 L115.188,32 L115.188,26.96 C115.188,26.563998 115.134001,26.2250014 115.026,25.943 C114.917999,25.6609986 114.774001,25.4330009 114.594,25.259 C114.413999,25.0849991 114.207001,24.9590004 113.973,24.881 C113.738999,24.8029996 113.496001,24.764 113.244,24.764 C112.907998,24.764 112.596001,24.8179995 112.308,24.926 C112.019999,25.0340005 111.768001,25.2049988 111.552,25.439 C111.335999,25.6730012 111.168001,25.9699982 111.048,26.33 C110.927999,26.6900018 110.868,27.1159975 110.868,27.608 L110.868,32 L109.248,32 L109.248,23.468 Z M123.828,24.872 L121.506,24.872 L121.506,28.742 C121.506,28.9820012 121.512,29.2189988 121.524,29.453 C121.536,29.6870012 121.581,29.8969991 121.659,30.083 C121.737,30.2690009 121.856999,30.4189994 122.019,30.533 C122.181001,30.6470006 122.417998,30.704 122.73,30.704 C122.922001,30.704 123.119999,30.6860002 123.324,30.65 C123.528001,30.6139998 123.713999,30.5480005 123.882,30.452 L123.882,31.928 C123.689999,32.0360005 123.441002,32.1109998 123.135,32.153 C122.828998,32.1950002 122.592001,32.216 122.424,32.216 C121.799997,32.216 121.317002,32.1290009 120.975,31.955 C120.632998,31.7809991 120.381001,31.5560014 120.219,31.28 C120.056999,31.0039986 119.961,30.6950017 119.931,30.353 C119.901,30.0109983 119.886,29.6660017 119.886,29.318 L119.886,24.872 L118.014,24.872 L118.014,23.468 L119.886,23.468 L119.886,21.074 L121.506,21.074 L121.506,23.468 L123.828,23.468 L123.828,24.872 Z M131.334,19.256 L133.062,19.256 L133.062,30.38 L138.912,30.38 L138.912,32 L131.334,32 L131.334,19.256 Z M140.298,24.512 C140.754002,24.0919979 141.281997,23.777001 141.882,23.567 C142.482003,23.3569989 143.081997,23.252 143.682,23.252 C144.306003,23.252 144.842998,23.3299992 145.293,23.486 C145.743002,23.6420008 146.111999,23.8519987 146.4,24.116 C146.688001,24.3800013 146.900999,24.6829983 147.039,25.025 C147.177001,25.3670017 147.246,25.7239981 147.246,26.096 L147.246,30.452 C147.246,30.7520015 147.252,31.0279987 147.264,31.28 C147.276,31.5320013 147.294,31.7719989 147.318,32 L145.878,32 C145.842,31.5679978 145.824,31.1360022 145.824,30.704 L145.788,30.704 C145.427998,31.2560028 145.002002,31.6459989 144.51,31.874 C144.017998,32.1020011 143.448003,32.216 142.8,32.216 C142.403998,32.216 142.026002,32.1620005 141.666,32.054 C141.305998,31.9459995 140.991001,31.7840011 140.721,31.568 C140.450999,31.3519989 140.238001,31.0850016 140.082,30.767 C139.925999,30.4489984 139.848,30.0800021 139.848,29.66 C139.848,29.1079972 139.970999,28.6460019 140.217,28.274 C140.463001,27.9019981 140.798998,27.5990012 141.225,27.365 C141.651002,27.1309988 142.148997,26.9630005 142.719,26.861 C143.289003,26.7589995 143.897997,26.708 144.546,26.708 L145.734,26.708 L145.734,26.348 C145.734,26.1319989 145.692,25.9160011 145.608,25.7 C145.524,25.4839989 145.398001,25.2890009 145.23,25.115 C145.061999,24.9409991 144.852001,24.8030005 144.6,24.701 C144.347999,24.5989995 144.048002,24.548 143.7,24.548 C143.387998,24.548 143.115001,24.5779997 142.881,24.638 C142.646999,24.6980003 142.434001,24.7729995 142.242,24.863 C142.049999,24.9530004 141.876001,25.0579994 141.72,25.178 C141.563999,25.2980006 141.414001,25.4119995 141.27,25.52 L140.298,24.512 Z M144.87,27.896 C144.485998,27.896 144.093002,27.9169998 143.691,27.959 C143.288998,28.0010002 142.923002,28.0819994 142.593,28.202 C142.262998,28.3220006 141.993001,28.4899989 141.783,28.706 C141.572999,28.9220011 141.468,29.1979983 141.468,29.534 C141.468,30.0260025 141.632998,30.3799989 141.963,30.596 C142.293002,30.8120011 142.739997,30.92 143.304,30.92 C143.748002,30.92 144.125998,30.8450008 144.438,30.695 C144.750002,30.5449993 145.001999,30.3500012 145.194,30.11 C145.386001,29.8699988 145.524,29.6030015 145.608,29.309 C145.692,29.0149985 145.734,28.7240014 145.734,28.436 L145.734,27.896 L144.87,27.896 Z M149.604,18.392 L151.224,18.392 L151.224,24.692 L151.26,24.692 C151.548001,24.2479978 151.961997,23.8970013 152.502,23.639 C153.042003,23.3809987 153.617997,23.252 154.23,23.252 C154.890003,23.252 155.486997,23.3659989 156.021,23.594 C156.555003,23.8220011 157.010998,24.136998 157.389,24.539 C157.767002,24.941002 158.057999,25.4149973 158.262,25.961 C158.466001,26.5070027 158.568,27.0979968 158.568,27.734 C158.568,28.3700032 158.466001,28.9579973 158.262,29.498 C158.057999,30.0380027 157.767002,30.511998 157.389,30.92 C157.010998,31.328002 156.555003,31.6459989 156.021,31.874 C155.486997,32.1020011 154.890003,32.216 154.23,32.216 C153.653997,32.216 153.093003,32.0900013 152.547,31.838 C152.000997,31.5859987 151.572002,31.2320023 151.26,30.776 L151.224,30.776 L151.224,32 L149.604,32 L149.604,18.392 Z M154.032,30.704 C154.464002,30.704 154.853998,30.6290008 155.202,30.479 C155.550002,30.3289993 155.843999,30.1250013 156.084,29.867 C156.324001,29.6089987 156.509999,29.2970018 156.642,28.931 C156.774001,28.5649982 156.84,28.1660022 156.84,27.734 C156.84,27.3019978 156.774001,26.9030018 156.642,26.537 C156.509999,26.1709982 156.324001,25.8590013 156.084,25.601 C155.843999,25.3429987 155.550002,25.1390008 155.202,24.989 C154.853998,24.8389993 154.464002,24.764 154.032,24.764 C153.599998,24.764 153.210002,24.8389993 152.862,24.989 C152.513998,25.1390008 152.220001,25.3429987 151.98,25.601 C151.739999,25.8590013 151.554001,26.1709982 151.422,26.537 C151.289999,26.9030018 151.224,27.3019978 151.224,27.734 C151.224,28.1660022 151.289999,28.5649982 151.422,28.931 C151.554001,29.2970018 151.739999,29.6089987 151.98,29.867 C152.220001,30.1250013 152.513998,30.3289993 152.862,30.479 C153.210002,30.6290008 153.599998,30.704 154.032,30.704 Z M165.138,25.61 C164.945999,25.3699988 164.709001,25.1690008 164.427,25.007 C164.144999,24.8449992 163.800002,24.764 163.392,24.764 C163.007998,24.764 162.675001,24.8449992 162.393,25.007 C162.110999,25.1690008 161.97,25.4059984 161.97,25.718 C161.97,25.9700013 162.050999,26.1739992 162.213,26.33 C162.375001,26.4860008 162.566999,26.6119995 162.789,26.708 C163.011001,26.8040005 163.247999,26.8759998 163.5,26.924 C163.752001,26.9720002 163.967999,27.0139998 164.148,27.05 C164.496002,27.1340004 164.822998,27.2359994 165.129,27.356 C165.435002,27.4760006 165.698999,27.631999 165.921,27.824 C166.143001,28.016001 166.316999,28.2499986 166.443,28.526 C166.569001,28.8020014 166.632,29.137998 166.632,29.534 C166.632,30.0140024 166.530001,30.4249983 166.326,30.767 C166.121999,31.1090017 165.858002,31.3879989 165.534,31.604 C165.209998,31.8200011 164.841002,31.9759995 164.427,32.072 C164.012998,32.1680005 163.596002,32.216 163.176,32.216 C162.467996,32.216 161.847003,32.1080011 161.313,31.892 C160.778997,31.6759989 160.302002,31.2800029 159.882,30.704 L161.106,29.696 C161.370001,29.9600013 161.663998,30.193999 161.988,30.398 C162.312002,30.602001 162.707998,30.704 163.176,30.704 C163.380001,30.704 163.586999,30.6830002 163.797,30.641 C164.007001,30.5989998 164.192999,30.5330004 164.355,30.443 C164.517001,30.3529995 164.648999,30.2390007 164.751,30.101 C164.853001,29.9629993 164.904,29.8040009 164.904,29.624 C164.904,29.3839988 164.829001,29.1860008 164.679,29.03 C164.528999,28.8739992 164.349001,28.7510004 164.139,28.661 C163.928999,28.5709996 163.707001,28.4990003 163.473,28.445 C163.238999,28.3909997 163.032001,28.3460002 162.852,28.31 C162.503998,28.2259996 162.174002,28.1300005 161.862,28.022 C161.549998,27.9139995 161.274001,27.7700009 161.034,27.59 C160.793999,27.4099991 160.602001,27.1820014 160.458,26.906 C160.313999,26.6299986 160.242,26.288002 160.242,25.88 C160.242,25.4359978 160.334999,25.0490017 160.521,24.719 C160.707001,24.3889984 160.952998,24.1160011 161.259,23.9 C161.565002,23.6839989 161.912998,23.5220005 162.303,23.414 C162.693002,23.3059995 163.085998,23.252 163.482,23.252 C164.058003,23.252 164.609997,23.3599989 165.138,23.576 C165.666003,23.7920011 166.085998,24.1519975 166.398,24.656 L165.138,25.61 Z" id="Eloquent-Labs" fill="#1CA6DE"></path>
                    <path d="M38.9777401,46.0331345 C20.2566499,38.2941972 0,47 0,47 C0,47 36.529681,-4.00999281 42.0664998,0.253059658 C47.6033185,4.51611212 27.400104,40.199054 10.738078,36.8797649 C22.4065522,36.8820752 30.3340218,24.7587185 35.7935935,17.2314869 C32.0223726,17.4680503 26.5851114,18.0056645 26.5851114,18.0056645 C26.5851114,18.0056645 30.7464871,16.7763077 37.0416044,14.950072 C41.1835154,9.01444131 41.1965276,3.89002223 39.8317079,3.0041267 C35.8245324,0.40309533 4.31795176,43.3839908 4.31795176,43.3839908 C4.31795176,43.3839908 23.0179613,38.5382543 38.9777401,46.0331345 Z" fill="#29A7DC"></path>
                </g>
            </g>
        </g>
    </g>
</svg>